<?xml version="1.0" standalone="no"?>
<!DOCTYPE svg PUBLIC "-//W3C//DTD SVG 20010904//EN"
 "http://www.w3.org/TR/2001/REC-SVG-20010904/DTD/svg10.dtd">
<svg version="1.0" xmlns="http://www.w3.org/2000/svg"
 width="512.000000pt" height="512.000000pt" viewBox="0 0 512.000000 512.000000"
 preserveAspectRatio="xMidYMid meet">
<metadata>
Created by potrace 1.15, written by Peter Selinger 2001-2017
</metadata>
<g transform="translate(0.000000,512.000000) scale(0.100000,-0.100000)"
fill="#000000" stroke="none">
<path d="M2235 4491 c-16 -4 -43 -15 -60 -24 -16 -8 -291 -236 -610 -506
l-579 -491 -467 0 c-457 0 -467 0 -493 -21 l-26 -20 0 -849 c0 -467 3 -856 6
-865 17 -43 39 -45 523 -45 l460 0 578 -531 c318 -292 595 -540 616 -551 125
-63 286 -7 351 124 l26 52 0 1766 0 1766 -26 52 c-29 58 -69 96 -132 124 -49
22 -124 31 -167 19z"/>
<path d="M3039 3405 c-33 -18 -53 -66 -44 -102 4 -19 125 -147 360 -383 l355
-355 -355 -355 c-235 -236 -356 -364 -360 -383 -10 -37 12 -85 46 -102 66 -34
57 -41 444 345 l360 360 360 -360 c347 -347 362 -360 399 -360 53 0 96 43 96
96 0 37 -13 52 -355 394 -195 195 -355 360 -355 365 0 5 160 170 355 365 337
338 355 357 355 392 0 57 -36 93 -94 93 l-46 0 -357 -357 -358 -358 -360 360
c-389 388 -380 381 -446 345z"/>
</g>
</svg>
