<?xml version="1.0" standalone="no"?>
<!DOCTYPE svg PUBLIC "-//W3C//DTD SVG 20010904//EN"
 "http://www.w3.org/TR/2001/REC-SVG-20010904/DTD/svg10.dtd">
<svg version="1.0" xmlns="http://www.w3.org/2000/svg"
 width="512.000000pt" height="512.000000pt" viewBox="0 0 512.000000 512.000000"
 preserveAspectRatio="xMidYMid meet">
<metadata>
Created by potrace 1.15, written by Peter Selinger 2001-2017
</metadata>
<g transform="translate(0.000000,512.000000) scale(0.100000,-0.100000)"
fill="#000000" stroke="none">
<path d="M3724 4580 c-28 -11 -54 -48 -54 -77 0 -52 22 -74 118 -119 212 -99
399 -230 567 -399 284 -283 466 -622 550 -1025 36 -170 45 -476 21 -653 -81
-578 -390 -1074 -868 -1396 -93 -62 -257 -149 -351 -186 -37 -15 -74 -37 -82
-48 -35 -50 -4 -129 54 -142 34 -7 155 39 291 112 621 332 1030 915 1131 1612
18 125 21 176 16 366 -5 227 -15 309 -63 497 -112 445 -380 860 -744 1151
-109 88 -269 190 -395 252 -117 58 -157 70 -191 55z"/>
<path d="M2235 4491 c-16 -4 -43 -15 -60 -24 -16 -8 -291 -236 -610 -506
l-579 -491 -467 0 c-457 0 -467 0 -493 -21 l-26 -20 0 -849 c0 -467 3 -856 6
-865 17 -43 39 -45 523 -45 l460 0 578 -531 c318 -292 595 -540 616 -551 125
-63 286 -7 351 124 l26 52 0 1766 0 1766 -26 52 c-29 58 -69 96 -132 124 -49
22 -124 31 -167 19z"/>
<path d="M3244 4146 c-41 -18 -60 -63 -44 -109 11 -37 25 -46 127 -86 186 -73
343 -179 499 -335 217 -218 344 -453 410 -756 26 -121 27 -448 1 -570 -64
-300 -200 -553 -412 -765 -153 -153 -338 -275 -529 -345 -76 -29 -96 -49 -96
-100 0 -51 34 -90 79 -90 63 0 284 101 421 193 245 164 433 378 565 642 73
146 113 261 147 415 19 91 22 134 23 330 0 254 -14 349 -82 544 -159 460 -518
836 -963 1008 -90 35 -111 39 -146 24z"/>
<path d="M2790 3683 c-38 -14 -60 -47 -60 -88 0 -52 24 -76 100 -100 239 -77
465 -281 575 -519 221 -477 18 -1040 -460 -1278 -38 -19 -94 -43 -124 -53 -70
-23 -91 -45 -91 -95 0 -30 7 -47 25 -65 31 -32 75 -32 157 -1 563 211 874 799
728 1373 -96 373 -384 687 -742 807 -80 27 -84 28 -108 19z"/>
</g>
</svg>
